<svg height="449pt" viewBox="-12 0 449 449.91165" width="449pt" xmlns="http://www.w3.org/2000/svg"><path d="m392.90625 30.070312c-3.347656-.894531-5.738281-3.84375-5.921875-7.300781l-.375-7.203125c-.199219-3.449218-2.59375-6.382812-5.9375-7.269531-3.339844-.886719-6.875.476563-8.757813 3.375l-3.914062 6.03125c-1.890625 2.914063-5.445312 4.277344-8.796875 3.367187l-6.9375-1.863281c-3.363281-.917969-6.933594.445313-8.824219 3.371094-1.894531 2.925781-1.679687 6.738281.535156 9.429687l4.519532 5.601563c1.691406 2.105469 2.195312 4.925781 1.335937 7.488281l46.035157-14.226562zm0 0" fill="#ffe165"/><path d="m399.847656 31.921875-4-1.074219-46.015625 14.160156c-.179687.667969-.449219 1.308594-.796875 1.90625l-3.914062 6.023438c-1.894532 2.910156-1.695313 6.710938.492187 9.410156 2.191407 2.695313 5.871094 3.671875 9.109375 2.414063l6.703125-2.578125c3.230469-1.25 6.898438-.28125 9.085938 2.402344l4.523437 5.597656c2.179688 2.695312 5.84375 3.679687 9.082032 2.4375 3.234374-1.242188 5.304687-4.425782 5.125-7.886719l-.375-7.199219c-.183594-3.460937 1.882812-6.644531 5.117187-7.886718l6.707031-2.578126c3.195313-1.269531 5.226563-4.441406 5.035156-7.875-.191406-3.4375-2.558593-6.367187-5.878906-7.273437zm0 0" fill="#ffd839"/><path d="m133.59375 40.230469c2.214844-2.6875 2.433594-6.503907.539062-9.429688-1.894531-2.925781-5.464843-4.289062-8.828124-3.367187l-34.191407 9.191406c-1.046875.257812-2.136719.296875-3.199219.109375l-45.570312 85.335937-.429688 8.378907c-.183593 3.460937 1.882813 6.648437 5.121094 7.890625 3.234375 1.242187 6.90625.261718 9.085938-2.4375l22.273437-27.511719c2.1875-2.679687 5.859375-3.648437 9.085938-2.398437l33.050781 12.679687c3.238281 1.257813 6.917969.28125 9.105469-2.414063 2.191406-2.695312 2.390625-6.5.492187-9.410156l-19.335937-29.71875c-1.886719-2.90625-1.691407-6.699218.488281-9.394531zm0 0" fill="#ff9811"/><path d="m82.328125 33.273438-19.277344-29.6875c-1.898437-2.871094-5.421875-4.203126-8.742187-3.3125-3.324219.890624-5.707032 3.804687-5.914063 7.238281l-1.890625 35.359375c-.179687 3.464844-2.570312 6.417968-5.917968 7.3125l-34.191407 9.144531c-3.351562.894531-5.746093 3.847656-5.925781 7.308594-.183594 3.464843 1.886719 6.652343 5.125 7.890625l33.046875 12.679687c3.234375 1.242188 5.304687 4.429688 5.121094 7.890625l-1.417969 26.972656 45.539062-85.335937c-2.261718-.300781-4.285156-1.5625-5.554687-3.460937zm0 0" fill="#ffaf46"/><path d="m283.699219 171.886719-59.050781-90.917969c-3.773438-5.816406-10.863282-8.539062-17.5625-6.746094-6.699219 1.796875-11.476563 7.699219-11.835938 14.625l-5.671875 108.265625c-.363281 6.917969-5.140625 12.820313-11.832031 14.613281l-104.71875 28.058594c-6.703125 1.789063-11.492188 7.691406-11.855469 14.617188-.363281 6.925781 3.777344 13.300781 10.253906 15.78125l101.214844 38.847656c6.472656 2.484375 10.613281 8.851562 10.25 15.777344l-5.058594 96.382812 112.839844-243.488281c-2.84375-1.210937-5.269531-3.234375-6.972656-5.816406zm0 0" fill="#ffd839"/><path d="m422.554688 176.097656c4.351562-5.386718 4.746093-12.960937.976562-18.769531s-10.847656-8.535156-17.539062-6.75l-104.734376 28.054687c-3.53125.917969-7.269531.589844-10.585937-.929687l-112.839844 243.488281-.636719 11.878906c-.367187 6.925782 3.769532 13.296876 10.242188 15.78125 6.476562 2.480469 13.8125.515626 18.171875-4.875l68.222656-84.25c4.363281-5.386718 11.699219-7.351562 18.167969-4.871093l101.21875 38.855469c6.46875 2.496093 13.8125.539062 18.179688-4.847657 4.367187-5.386719 4.769531-12.972656.996093-18.792969l-59.058593-90.933593c-3.773438-5.8125-3.375-13.398438.984374-18.785157zm0 0" fill="#ffcd00"/></svg>